# xmcd
#
# Track frame offsets: 
#        150
#        20326
#        39727
#        64990
#        84149
#        102452
#        125366
#        149311
#        166019
#        178684
#        197676
#        216285
#        219514
#
# Disc length: 3209 seconds
#
# Revision: 1
# Processed by: cddbd v1.5.2PL0 Copyright (c) Steve Scherf et al.
# Submitted via: ExactAudioCopy v0.95b4
#
DISCID=b60c870d
DTITLE=Sergio Cammariere - Il Pane, Il Vino e La Visione
DYEAR=2006
DGENRE=Jazz
TTITLE0=Non mi lasciare qui
TTITLE1=Malgrado poi
TTITLE2=Canzone di Priamo
TTITLE3=Tra i miei segreti
TTITLE4=Tu sei
TTITLE5=Il pane, il vino e la visione
TTITLE6=E mi troverai
TTITLE7=Gli angeli siamo noi
TTITLE8=Settembre
TTITLE9=Non fermare ora
TTITLE10=Le cose diverse
TTITLE11=Riflessi
TTITLE12=Padre della notte
EXTD=YEAR: 2006
EXTT0=
EXTT1=
EXTT2=
EXTT3=
EXTT4=
EXTT5=
EXTT6=
EXTT7=
EXTT8=
EXTT9=
EXTT10=
EXTT11=
EXTT12=
PLAYORDER=
